<svg xmlns="http://www.w3.org/2000/svg" xmlns:xlink="http://www.w3.org/1999/xlink" width="2000" zoomAndPan="magnify" viewBox="0 0 1500 1499.999933" height="2000" preserveAspectRatio="xMidYMid meet" version="1.0"><defs><g/></defs><rect x="-150" width="1800" fill="#ffffff" y="-149.999993" height="1799.99992" fill-opacity="1"/><rect x="-150" width="1800" fill="#ffffff" y="-149.999993" height="1799.99992" fill-opacity="1"/><g fill="#000000" fill-opacity="1"><g transform="translate(80.47152, 1181.999878)"><g><path d="M 62.328125 0 L 12.703125 -805.75 L 161.609375 -805.75 L 184.703125 -323.21875 L 191.625 -170.84375 L 202.015625 -170.84375 L 271.28125 -630.28125 L 427.109375 -630.28125 L 496.375 -170.84375 L 506.765625 -170.84375 L 513.6875 -318.609375 L 536.78125 -805.75 L 679.921875 -805.75 L 630.28125 0 L 410.953125 0 L 352.078125 -444.421875 L 340.53125 -444.421875 L 281.65625 0 Z M 62.328125 0 "/></g></g></g><g fill="#000000" fill-opacity="1"><g transform="translate(726.909072, 1181.999878)"><g><path d="M 88.890625 -805.75 L 371.703125 -805.75 C 450.972656 -805.75 511.578125 -786.507812 553.515625 -748.03125 C 595.453125 -709.550781 616.421875 -657.21875 616.421875 -591.03125 C 616.421875 -544.851562 605.070312 -508.101562 582.375 -480.78125 C 559.675781 -453.46875 527.160156 -433.65625 484.828125 -421.34375 L 484.828125 -414.421875 C 534.847656 -402.097656 573.519531 -380.546875 600.84375 -349.765625 C 628.164062 -318.984375 641.828125 -276.273438 641.828125 -221.640625 C 641.828125 -153.910156 620.46875 -100.035156 577.75 -60.015625 C 535.039062 -20.003906 475.207031 0 398.25 0 L 88.890625 0 Z M 345.15625 -121.203125 C 386.707031 -121.203125 417.101562 -128.128906 436.34375 -141.984375 C 455.582031 -155.835938 465.203125 -181.234375 465.203125 -218.171875 L 465.203125 -251.65625 C 465.203125 -288.59375 455.582031 -313.984375 436.34375 -327.828125 C 417.101562 -341.679688 386.707031 -348.609375 345.15625 -348.609375 L 257.421875 -348.609375 L 257.421875 -121.203125 Z M 323.21875 -464.046875 C 364.007812 -464.046875 393.640625 -470.78125 412.109375 -484.25 C 430.578125 -497.71875 439.8125 -522.15625 439.8125 -557.5625 L 439.8125 -592.1875 C 439.8125 -627.582031 430.578125 -651.820312 412.109375 -664.90625 C 393.640625 -677.988281 364.007812 -684.53125 323.21875 -684.53125 L 257.421875 -684.53125 L 257.421875 -464.046875 Z M 323.21875 -464.046875 "/></g></g></g></svg>