<svg xmlns="http://www.w3.org/2000/svg" xmlns:xlink="http://www.w3.org/1999/xlink" width="2000" zoomAndPan="magnify" viewBox="0 0 1500 1499.999933" height="2000" preserveAspectRatio="xMidYMid meet" version="1.0"><defs><g/></defs><rect x="-150" width="1800" fill="#ffffff" y="-149.999993" height="1799.99992" fill-opacity="1"/><rect x="-150" width="1800" fill="#ffffff" y="-149.999993" height="1799.99992" fill-opacity="1"/><g fill="#000000" fill-opacity="1"><g transform="translate(40.003931, 736.499917)"><g><path d="M 3.5 -258 L 65 -258 L 83.5 -49 L 88.5 -49 L 119 -258 L 184 -258 L 214 -49 L 219 -49 L 238 -258 L 296.5 -258 L 266 0 L 178 0 L 152.5 -178 L 147.5 -178 L 122 0 L 34 0 Z M 3.5 -258 "/></g></g></g><g fill="#000000" fill-opacity="1"><g transform="translate(320.000365, 736.499917)"><g><path d="M 32.5 -370 L 106.5 -370 L 106.5 -211 L 109.5 -211 C 112.5 -218.332031 116.164062 -225.164062 120.5 -231.5 C 124.832031 -237.832031 130.082031 -243.414062 136.25 -248.25 C 142.414062 -253.082031 149.582031 -256.914062 157.75 -259.75 C 165.914062 -262.582031 175.164062 -264 185.5 -264 C 197.832031 -264 209.164062 -261.914062 219.5 -257.75 C 229.832031 -253.582031 238.664062 -247.332031 246 -239 C 253.332031 -230.664062 259.082031 -220.5 263.25 -208.5 C 267.414062 -196.5 269.5 -182.664062 269.5 -167 L 269.5 0 L 195.5 0 L 195.5 -157 C 195.5 -190.332031 181 -207 152 -207 C 146.332031 -207 140.75 -206.25 135.25 -204.75 C 129.75 -203.25 124.832031 -200.914062 120.5 -197.75 C 116.164062 -194.582031 112.75 -190.664062 110.25 -186 C 107.75 -181.332031 106.5 -175.832031 106.5 -169.5 L 106.5 0 L 32.5 0 Z M 32.5 -370 "/></g></g></g><g fill="#000000" fill-opacity="1"><g transform="translate(599.996798, 736.499917)"><g><path d="M 166 -291 C 149.332031 -291 137.75 -294.414062 131.25 -301.25 C 124.75 -308.082031 121.5 -316.332031 121.5 -326 L 121.5 -340.5 C 121.5 -350.5 124.75 -358.832031 131.25 -365.5 C 137.75 -372.164062 149.332031 -375.5 166 -375.5 C 182.664062 -375.5 194.25 -372.164062 200.75 -365.5 C 207.25 -358.832031 210.5 -350.5 210.5 -340.5 L 210.5 -326 C 210.5 -316.332031 207.25 -308.082031 200.75 -301.25 C 194.25 -294.414062 182.664062 -291 166 -291 Z M 47 -57.5 L 129 -57.5 L 129 -200.5 L 47 -200.5 L 47 -258 L 203 -258 L 203 -57.5 L 279 -57.5 L 279 0 L 47 0 Z M 47 -57.5 "/></g></g></g><g fill="#000000" fill-opacity="1"><g transform="translate(879.993231, 736.499917)"><g><path d="M 34 -57.5 L 113 -57.5 L 113 -312.5 L 34 -312.5 L 34 -370 L 187 -370 L 187 -57.5 L 266 -57.5 L 266 0 L 34 0 Z M 34 -57.5 "/></g></g></g><g fill="#000000" fill-opacity="1"><g transform="translate(1159.989665, 736.499917)"><g><path d="M 157 6 C 113.664062 6 80.832031 -6 58.5 -30 C 36.164062 -54 25 -86.664062 25 -128 C 25 -149 27.914062 -167.914062 33.75 -184.75 C 39.582031 -201.582031 47.914062 -215.914062 58.75 -227.75 C 69.582031 -239.582031 82.75 -248.582031 98.25 -254.75 C 113.75 -260.914062 131.164062 -264 150.5 -264 C 169.832031 -264 187.164062 -260.914062 202.5 -254.75 C 217.832031 -248.582031 230.832031 -239.832031 241.5 -228.5 C 252.164062 -217.164062 260.414062 -203.414062 266.25 -187.25 C 272.082031 -171.082031 275 -153 275 -133 L 275 -111 L 98.5 -111 L 98.5 -106.5 C 98.5 -89.832031 103.664062 -76.414062 114 -66.25 C 124.332031 -56.082031 139.5 -51 159.5 -51 C 174.832031 -51 188 -53.914062 199 -59.75 C 210 -65.582031 219.5 -73.332031 227.5 -83 L 267.5 -39.5 C 257.5 -27.164062 243.5 -16.5 225.5 -7.5 C 207.5 1.5 184.664062 6 157 6 Z M 151 -211 C 135 -211 122.25 -206.082031 112.75 -196.25 C 103.25 -186.414062 98.5 -173.164062 98.5 -156.5 L 98.5 -152.5 L 202.5 -152.5 L 202.5 -156.5 C 202.5 -173.5 197.914062 -186.832031 188.75 -196.5 C 179.582031 -206.164062 167 -211 151 -211 Z M 151 -211 "/></g></g></g><g fill="#000000" fill-opacity="1"><g transform="translate(40.003931, 1136.249882)"><g><path d="M 29.5 -370 L 103.5 -370 L 103.5 -211 L 107 -211 C 113.332031 -226.332031 122.5 -239 134.5 -249 C 146.5 -259 162.832031 -264 183.5 -264 C 197.832031 -264 210.914062 -261.332031 222.75 -256 C 234.582031 -250.664062 244.75 -242.5 253.25 -231.5 C 261.75 -220.5 268.414062 -206.5 273.25 -189.5 C 278.082031 -172.5 280.5 -152.332031 280.5 -129 C 280.5 -105.664062 278.082031 -85.5 273.25 -68.5 C 268.414062 -51.5 261.75 -37.5 253.25 -26.5 C 244.75 -15.5 234.582031 -7.332031 222.75 -2 C 210.914062 3.332031 197.832031 6 183.5 6 C 162.832031 6 146.5 1.082031 134.5 -8.75 C 122.5 -18.582031 113.332031 -31.332031 107 -47 L 103.5 -47 L 103.5 0 L 29.5 0 Z M 151.5 -51.5 C 168.164062 -51.5 181 -56.582031 190 -66.75 C 199 -76.914062 203.5 -91 203.5 -109 L 203.5 -149 C 203.5 -167 199 -181.082031 190 -191.25 C 181 -201.414062 168.164062 -206.5 151.5 -206.5 C 138.5 -206.5 127.25 -203.332031 117.75 -197 C 108.25 -190.664062 103.5 -180.664062 103.5 -167 L 103.5 -91 C 103.5 -77.332031 108.25 -67.332031 117.75 -61 C 127.25 -54.664062 138.5 -51.5 151.5 -51.5 Z M 151.5 -51.5 "/></g></g></g><g fill="#000000" fill-opacity="1"><g transform="translate(320.000365, 1136.249882)"><g><path d="M 150 6 C 130 6 112 2.914062 96 -3.25 C 80 -9.414062 66.414062 -18.332031 55.25 -30 C 44.082031 -41.664062 35.5 -55.832031 29.5 -72.5 C 23.5 -89.164062 20.5 -108 20.5 -129 C 20.5 -150 23.5 -168.832031 29.5 -185.5 C 35.5 -202.164062 44.082031 -216.332031 55.25 -228 C 66.414062 -239.664062 80 -248.582031 96 -254.75 C 112 -260.914062 130 -264 150 -264 C 170 -264 188 -260.914062 204 -254.75 C 220 -248.582031 233.582031 -239.664062 244.75 -228 C 255.914062 -216.332031 264.5 -202.164062 270.5 -185.5 C 276.5 -168.832031 279.5 -150 279.5 -129 C 279.5 -108 276.5 -89.164062 270.5 -72.5 C 264.5 -55.832031 255.914062 -41.664062 244.75 -30 C 233.582031 -18.332031 220 -9.414062 204 -3.25 C 188 2.914062 170 6 150 6 Z M 150 -49 C 166.664062 -49 179.664062 -54.164062 189 -64.5 C 198.332031 -74.832031 203 -89.5 203 -108.5 L 203 -149.5 C 203 -168.5 198.332031 -183.164062 189 -193.5 C 179.664062 -203.832031 166.664062 -209 150 -209 C 133.332031 -209 120.332031 -203.832031 111 -193.5 C 101.664062 -183.164062 97 -168.5 97 -149.5 L 97 -108.5 C 97 -89.5 101.664062 -74.832031 111 -64.5 C 120.332031 -54.164062 133.332031 -49 150 -49 Z M 150 -49 "/></g></g></g><g fill="#000000" fill-opacity="1"><g transform="translate(599.996798, 1136.249882)"><g><path d="M 37 -57.5 L 96.5 -57.5 L 96.5 -200.5 L 37 -200.5 L 37 -258 L 170.5 -258 L 170.5 -185 L 174 -185 C 176.332031 -194.332031 179.582031 -203.414062 183.75 -212.25 C 187.914062 -221.082031 193.25 -228.914062 199.75 -235.75 C 206.25 -242.582031 214.164062 -248 223.5 -252 C 232.832031 -256 243.832031 -258 256.5 -258 L 281 -258 L 281 -190 L 226 -190 C 207.664062 -190 193.832031 -184.582031 184.5 -173.75 C 175.164062 -162.914062 170.5 -149.664062 170.5 -134 L 170.5 -57.5 L 255.5 -57.5 L 255.5 0 L 37 0 Z M 37 -57.5 "/></g></g></g><g fill="#000000" fill-opacity="1"><g transform="translate(879.993231, 1136.249882)"><g><path d="M 157 6 C 113.664062 6 80.832031 -6 58.5 -30 C 36.164062 -54 25 -86.664062 25 -128 C 25 -149 27.914062 -167.914062 33.75 -184.75 C 39.582031 -201.582031 47.914062 -215.914062 58.75 -227.75 C 69.582031 -239.582031 82.75 -248.582031 98.25 -254.75 C 113.75 -260.914062 131.164062 -264 150.5 -264 C 169.832031 -264 187.164062 -260.914062 202.5 -254.75 C 217.832031 -248.582031 230.832031 -239.832031 241.5 -228.5 C 252.164062 -217.164062 260.414062 -203.414062 266.25 -187.25 C 272.082031 -171.082031 275 -153 275 -133 L 275 -111 L 98.5 -111 L 98.5 -106.5 C 98.5 -89.832031 103.664062 -76.414062 114 -66.25 C 124.332031 -56.082031 139.5 -51 159.5 -51 C 174.832031 -51 188 -53.914062 199 -59.75 C 210 -65.582031 219.5 -73.332031 227.5 -83 L 267.5 -39.5 C 257.5 -27.164062 243.5 -16.5 225.5 -7.5 C 207.5 1.5 184.664062 6 157 6 Z M 151 -211 C 135 -211 122.25 -206.082031 112.75 -196.25 C 103.25 -186.414062 98.5 -173.164062 98.5 -156.5 L 98.5 -152.5 L 202.5 -152.5 L 202.5 -156.5 C 202.5 -173.5 197.914062 -186.832031 188.75 -196.5 C 179.582031 -206.164062 167 -211 151 -211 Z M 151 -211 "/></g></g></g><g fill="#000000" fill-opacity="1"><g transform="translate(1159.989665, 1136.249882)"><g><path d="M 196.5 -47 L 193 -47 C 186.332031 -31.332031 177.082031 -18.582031 165.25 -8.75 C 153.414062 1.082031 137.164062 6 116.5 6 C 102.164062 6 89.082031 3.332031 77.25 -2 C 65.414062 -7.332031 55.25 -15.5 46.75 -26.5 C 38.25 -37.5 31.582031 -51.5 26.75 -68.5 C 21.914062 -85.5 19.5 -105.664062 19.5 -129 C 19.5 -152.332031 21.914062 -172.5 26.75 -189.5 C 31.582031 -206.5 38.25 -220.5 46.75 -231.5 C 55.25 -242.5 65.414062 -250.664062 77.25 -256 C 89.082031 -261.332031 102.164062 -264 116.5 -264 C 126.832031 -264 136 -262.664062 144 -260 C 152 -257.332031 159.082031 -253.664062 165.25 -249 C 171.414062 -244.332031 176.75 -238.75 181.25 -232.25 C 185.75 -225.75 189.664062 -218.664062 193 -211 L 196.5 -211 L 196.5 -370 L 270.5 -370 L 270.5 0 L 196.5 0 Z M 148.5 -51.5 C 161.5 -51.5 172.75 -54.664062 182.25 -61 C 191.75 -67.332031 196.5 -77.332031 196.5 -91 L 196.5 -167 C 196.5 -180.664062 191.75 -190.664062 182.25 -197 C 172.75 -203.332031 161.5 -206.5 148.5 -206.5 C 131.832031 -206.5 119 -201.414062 110 -191.25 C 101 -181.082031 96.5 -167 96.5 -149 L 96.5 -109 C 96.5 -91 101 -76.914062 110 -66.75 C 119 -56.582031 131.832031 -51.5 148.5 -51.5 Z M 148.5 -51.5 "/></g></g></g></svg>