<svg xmlns="http://www.w3.org/2000/svg" xmlns:xlink="http://www.w3.org/1999/xlink" width="2000" zoomAndPan="magnify" viewBox="0 0 1500 1499.999933" height="2000" preserveAspectRatio="xMidYMid meet" version="1.0"><defs><g/></defs><g fill="#000000" fill-opacity="1"><g transform="translate(49.705796, 1218.374875)"><g><path d="M 100.046875 0 L 100.046875 -872.859375 L 679.03125 -872.859375 L 679.03125 -719.046875 L 287.625 -719.046875 L 287.625 -518.96875 L 637.765625 -518.96875 L 637.765625 -365.15625 L 287.625 -365.15625 L 287.625 0 Z M 100.046875 0 "/></g></g></g><g fill="#000000" fill-opacity="1"><g transform="translate(699.974828, 1218.374875)"><g><path d="M 401.421875 15 C 350.566406 15 304.921875 7.289062 264.484375 -8.125 C 224.046875 -23.550781 189.863281 -45.851562 161.9375 -75.03125 C 134.007812 -104.207031 112.539062 -139.632812 97.53125 -181.3125 C 82.53125 -223 75.03125 -270.109375 75.03125 -322.640625 C 75.03125 -375.160156 82.53125 -422.257812 97.53125 -463.9375 C 112.539062 -505.625 134.007812 -541.054688 161.9375 -570.234375 C 189.863281 -599.410156 224.046875 -621.707031 264.484375 -637.125 C 304.921875 -652.550781 350.148438 -660.265625 400.171875 -660.265625 C 471.023438 -660.265625 527.921875 -645.882812 570.859375 -617.125 C 613.796875 -588.363281 646.519531 -550.222656 669.03125 -502.703125 L 526.46875 -425.171875 C 514.789062 -450.179688 499.570312 -471.023438 480.8125 -487.703125 C 462.0625 -504.378906 435.179688 -512.71875 400.171875 -512.71875 C 357.648438 -512.71875 324.925781 -500.421875 302 -475.828125 C 279.070312 -451.234375 267.609375 -417.675781 267.609375 -375.15625 L 267.609375 -270.109375 C 267.609375 -227.585938 279.070312 -194.03125 302 -169.4375 C 324.925781 -144.84375 358.484375 -132.546875 402.671875 -132.546875 C 438.515625 -132.546875 466.648438 -140.882812 487.078125 -157.5625 C 507.503906 -174.238281 524.800781 -195.914062 538.96875 -222.59375 L 679.03125 -142.5625 C 655.6875 -95.039062 621.710938 -56.898438 577.109375 -28.140625 C 532.503906 0.617188 473.941406 15 401.421875 15 Z M 401.421875 15 "/></g></g></g></svg>