<svg xmlns="http://www.w3.org/2000/svg" xmlns:xlink="http://www.w3.org/1999/xlink" width="2000" zoomAndPan="magnify" viewBox="0 0 1500 1499.999933" height="2000" preserveAspectRatio="xMidYMid meet" version="1.0"><defs><g/></defs><g fill="#ffffff" fill-opacity="1"><g transform="translate(80.47152, 1181.999878)"><g><path d="M 8.078125 -595.65625 L 150.0625 -595.65625 L 192.78125 -113.125 L 204.328125 -113.125 L 274.734375 -595.65625 L 424.796875 -595.65625 L 494.0625 -113.125 L 505.609375 -113.125 L 549.46875 -595.65625 L 684.53125 -595.65625 L 614.125 0 L 410.953125 0 L 352.078125 -410.953125 L 340.53125 -410.953125 L 281.65625 0 L 78.5 0 Z M 8.078125 -595.65625 "/></g></g></g><g fill="#ffffff" fill-opacity="1"><g transform="translate(726.909072, 1181.999878)"><g><path d="M 68.109375 -854.21875 L 238.953125 -854.21875 L 238.953125 -487.140625 L 247.03125 -487.140625 C 261.65625 -522.535156 282.816406 -551.773438 310.515625 -574.859375 C 338.222656 -597.953125 375.9375 -609.5 423.65625 -609.5 C 456.738281 -609.5 486.941406 -603.34375 514.265625 -591.03125 C 541.585938 -578.71875 565.0625 -559.863281 584.6875 -534.46875 C 604.3125 -509.070312 619.703125 -476.75 630.859375 -437.5 C 642.015625 -398.25 647.59375 -351.691406 647.59375 -297.828125 C 647.59375 -243.953125 642.015625 -197.390625 630.859375 -158.140625 C 619.703125 -118.898438 604.3125 -86.582031 584.6875 -61.1875 C 565.0625 -35.789062 541.585938 -16.929688 514.265625 -4.609375 C 486.941406 7.703125 456.738281 13.859375 423.65625 13.859375 C 375.9375 13.859375 338.222656 2.507812 310.515625 -20.1875 C 282.816406 -42.894531 261.65625 -72.335938 247.03125 -108.515625 L 238.953125 -108.515625 L 238.953125 0 L 68.109375 0 Z M 349.765625 -118.90625 C 388.242188 -118.90625 417.875 -130.640625 438.65625 -154.109375 C 459.4375 -177.578125 469.828125 -210.09375 469.828125 -251.65625 L 469.828125 -344 C 469.828125 -385.550781 459.4375 -418.0625 438.65625 -441.53125 C 417.875 -465.007812 388.242188 -476.75 349.765625 -476.75 C 319.753906 -476.75 293.78125 -469.4375 271.84375 -454.8125 C 249.914062 -440.195312 238.953125 -417.113281 238.953125 -385.5625 L 238.953125 -210.09375 C 238.953125 -178.539062 249.914062 -155.453125 271.84375 -140.828125 C 293.78125 -126.210938 319.753906 -118.90625 349.765625 -118.90625 Z M 349.765625 -118.90625 "/></g></g></g></svg>