<svg xmlns="http://www.w3.org/2000/svg" xmlns:xlink="http://www.w3.org/1999/xlink" width="2000" zoomAndPan="magnify" viewBox="0 0 1500 1499.999933" height="2000" preserveAspectRatio="xMidYMid meet" version="1.0"><defs><g/></defs><g fill="#000000" fill-opacity="1"><g transform="translate(40.003931, 736.499917)"><g><path d="M 27 0 L 5.5 -349 L 70 -349 L 80 -140 L 83 -74 L 87.5 -74 L 117.5 -273 L 185 -273 L 215 -74 L 219.5 -74 L 222.5 -138 L 232.5 -349 L 294.5 -349 L 273 0 L 178 0 L 152.5 -192.5 L 147.5 -192.5 L 122 0 Z M 27 0 "/></g></g></g><g fill="#000000" fill-opacity="1"><g transform="translate(320.000365, 736.499917)"><g><path d="M 194 -146 L 106 -146 L 106 0 L 30.5 0 L 30.5 -349 L 106 -349 L 106 -207.5 L 194 -207.5 L 194 -349 L 269.5 -349 L 269.5 0 L 194 0 Z M 194 -146 "/></g></g></g><g fill="#000000" fill-opacity="1"><g transform="translate(599.996798, 736.499917)"><g><path d="M 37.5 0 L 37.5 -55.5 L 112.5 -55.5 L 112.5 -293.5 L 37.5 -293.5 L 37.5 -349 L 262.5 -349 L 262.5 -293.5 L 187.5 -293.5 L 187.5 -55.5 L 262.5 -55.5 L 262.5 0 Z M 37.5 0 "/></g></g></g><g fill="#000000" fill-opacity="1"><g transform="translate(879.993231, 736.499917)"><g><path d="M 46 0 L 46 -349 L 121.5 -349 L 121.5 -61.5 L 271.5 -61.5 L 271.5 0 Z M 46 0 "/></g></g></g><g fill="#000000" fill-opacity="1"><g transform="translate(1159.989665, 736.499917)"><g><path d="M 40 0 L 40 -349 L 263 -349 L 263 -287.5 L 115 -287.5 L 115 -207.5 L 258 -207.5 L 258 -146 L 115 -146 L 115 -61.5 L 263 -61.5 L 263 0 Z M 40 0 "/></g></g></g><g fill="#000000" fill-opacity="1"><g transform="translate(40.003931, 1136.249882)"><g><path d="M 38.5 -349 L 161 -349 C 195.332031 -349 221.582031 -340.664062 239.75 -324 C 257.914062 -307.332031 267 -284.664062 267 -256 C 267 -236 262.082031 -220.082031 252.25 -208.25 C 242.414062 -196.414062 228.332031 -187.832031 210 -182.5 L 210 -179.5 C 231.664062 -174.164062 248.414062 -164.832031 260.25 -151.5 C 272.082031 -138.164062 278 -119.664062 278 -96 C 278 -66.664062 268.75 -43.332031 250.25 -26 C 231.75 -8.664062 205.832031 0 172.5 0 L 38.5 0 Z M 149.5 -52.5 C 167.5 -52.5 180.664062 -55.5 189 -61.5 C 197.332031 -67.5 201.5 -78.5 201.5 -94.5 L 201.5 -109 C 201.5 -125 197.332031 -136 189 -142 C 180.664062 -148 167.5 -151 149.5 -151 L 111.5 -151 L 111.5 -52.5 Z M 140 -201 C 157.664062 -201 170.5 -203.914062 178.5 -209.75 C 186.5 -215.582031 190.5 -226.164062 190.5 -241.5 L 190.5 -256.5 C 190.5 -271.832031 186.5 -282.332031 178.5 -288 C 170.5 -293.664062 157.664062 -296.5 140 -296.5 L 111.5 -296.5 L 111.5 -201 Z M 140 -201 "/></g></g></g><g fill="#000000" fill-opacity="1"><g transform="translate(320.000365, 1136.249882)"><g><path d="M 150 6 C 103.332031 6 68.914062 -9.832031 46.75 -41.5 C 24.582031 -73.164062 13.5 -117.5 13.5 -174.5 C 13.5 -231.5 24.582031 -275.832031 46.75 -307.5 C 68.914062 -339.164062 103.332031 -355 150 -355 C 196.664062 -355 231.082031 -339.164062 253.25 -307.5 C 275.414062 -275.832031 286.5 -231.5 286.5 -174.5 C 286.5 -117.5 275.414062 -73.164062 253.25 -41.5 C 231.082031 -9.832031 196.664062 6 150 6 Z M 150 -54.5 C 171.332031 -54.5 186.082031 -62.414062 194.25 -78.25 C 202.414062 -94.082031 206.5 -116.164062 206.5 -144.5 L 206.5 -205 C 206.5 -233 202.414062 -254.914062 194.25 -270.75 C 186.082031 -286.582031 171.332031 -294.5 150 -294.5 C 128.664062 -294.5 113.914062 -286.582031 105.75 -270.75 C 97.582031 -254.914062 93.5 -233 93.5 -205 L 93.5 -144 C 93.5 -116 97.582031 -94.082031 105.75 -78.25 C 113.914062 -62.414062 128.664062 -54.5 150 -54.5 Z M 150 -54.5 "/></g></g></g><g fill="#000000" fill-opacity="1"><g transform="translate(599.996798, 1136.249882)"><g><path d="M 112 0 L 38 0 L 38 -349 L 173 -349 C 190 -349 205.164062 -346.414062 218.5 -341.25 C 231.832031 -336.082031 243.082031 -328.664062 252.25 -319 C 261.414062 -309.332031 268.332031 -297.664062 273 -284 C 277.664062 -270.332031 280 -255 280 -238 C 280 -213.332031 274.664062 -192.164062 264 -174.5 C 253.332031 -156.832031 238.164062 -145.164062 218.5 -139.5 L 287 0 L 205 0 L 146.5 -129.5 L 112 -129.5 Z M 155 -187.5 C 172.664062 -187.5 184.914062 -190.832031 191.75 -197.5 C 198.582031 -204.164062 202 -215.164062 202 -230.5 L 202 -245.5 C 202 -260.832031 198.582031 -271.832031 191.75 -278.5 C 184.914062 -285.164062 172.664062 -288.5 155 -288.5 L 112 -288.5 L 112 -187.5 Z M 155 -187.5 "/></g></g></g><g fill="#000000" fill-opacity="1"><g transform="translate(879.993231, 1136.249882)"><g><path d="M 40 0 L 40 -349 L 263 -349 L 263 -287.5 L 115 -287.5 L 115 -207.5 L 258 -207.5 L 258 -146 L 115 -146 L 115 -61.5 L 263 -61.5 L 263 0 Z M 40 0 "/></g></g></g><g fill="#000000" fill-opacity="1"><g transform="translate(1159.989665, 1136.249882)"><g><path d="M 32 -349 L 144.5 -349 C 191.5 -349 226.332031 -334 249 -304 C 271.664062 -274 283 -230.832031 283 -174.5 C 283 -118.164062 271.664062 -75 249 -45 C 226.332031 -15 191.5 0 144.5 0 L 32 0 Z M 139.5 -59 C 161.832031 -59 178.164062 -66.164062 188.5 -80.5 C 198.832031 -94.832031 204 -115.664062 204 -143 L 204 -206.5 C 204 -233.5 198.832031 -254.164062 188.5 -268.5 C 178.164062 -282.832031 161.832031 -290 139.5 -290 L 106 -290 L 106 -59 Z M 139.5 -59 "/></g></g></g></svg>